<svg width="44" height="24" viewBox="0 0 44 24" fill="none" xmlns="http://www.w3.org/2000/svg">
<path d="M1.23 24C0.980667 24 0.776667 23.9207 0.618 23.762C0.459333 23.6033 0.38 23.3993 0.38 23.15V1.05C0.38 0.800665 0.459333 0.596665 0.618 0.437999C0.776667 0.279332 0.980667 0.199998 1.23 0.199998H10.75C12.6313 0.199998 14.2633 0.494665 15.646 1.084C17.0513 1.65067 18.1393 2.512 18.91 3.668C19.7033 4.824 20.1 6.286 20.1 8.054C20.1 9.79933 19.7033 11.2387 18.91 12.372C18.1393 13.5053 17.0513 14.344 15.646 14.888C14.2633 15.432 12.6313 15.704 10.75 15.704H6.704V23.15C6.704 23.3993 6.61333 23.6033 6.432 23.762C6.27333 23.9207 6.06933 24 5.82 24H1.23ZM6.602 11.012H10.58C11.5547 11.012 12.3253 10.7627 12.892 10.264C13.4813 9.76533 13.776 9.006 13.776 7.986C13.776 7.12467 13.5267 6.39933 13.028 5.81C12.5293 5.22067 11.7133 4.926 10.58 4.926H6.602V11.012ZM24.2066 24C23.9572 24 23.7532 23.9207 23.5946 23.762C23.4359 23.6033 23.3566 23.3993 23.3566 23.15V1.05C23.3566 0.800665 23.4359 0.596665 23.5946 0.437999C23.7532 0.279332 23.9572 0.199998 24.2066 0.199998H28.4906C28.7399 0.199998 28.9439 0.279332 29.1026 0.437999C29.2612 0.596665 29.3406 0.800665 29.3406 1.05V8.598L35.6306 0.845998C35.7212 0.709999 35.8686 0.573999 36.0726 0.437999C36.2992 0.279332 36.5939 0.199998 36.9566 0.199998H41.8526C42.0566 0.199998 42.2266 0.279332 42.3626 0.437999C42.4986 0.573999 42.5666 0.732666 42.5666 0.913999C42.5666 1.07267 42.5212 1.20866 42.4306 1.322L34.3046 11.59L43.0766 22.878C43.1672 22.9687 43.2126 23.1047 43.2126 23.286C43.2126 23.4673 43.1332 23.6373 42.9746 23.796C42.8386 23.932 42.6799 24 42.4986 24H37.4326C37.0246 24 36.7072 23.9093 36.4806 23.728C36.2766 23.5467 36.1406 23.4107 36.0726 23.32L29.3406 14.922V23.15C29.3406 23.3993 29.2612 23.6033 29.1026 23.762C28.9439 23.9207 28.7399 24 28.4906 24H24.2066Z" fill="white"/>
</svg>
